<svg xmlns="http://www.w3.org/2000/svg" xmlns:xlink="http://www.w3.org/1999/xlink" version="1.1" x="0px" y="0px" viewBox="0 0 64 80" enable-background="new 0 0 64 64" xml:space="preserve"><path d="M32,64C14.355,64,0,49.645,0,32C0,14.355,14.355,0,32,0c17.645,0,32,14.355,32,32C64,49.645,49.645,64,32,64z M32,3  C16.009,3,3,16.009,3,32c0,15.99,13.009,29,29,29c15.99,0,29-13.01,29-29C61,16.009,47.99,3,32,3z"/><path d="M37.815,15.477l8.473,7.066c0.096,0.07,0.186,0.148,0.264,0.242c0.203,0.243,0.314,0.533,0.34,0.826  c0.004,0.046,0,0.092,0.002,0.139c-0.002,0.046,0.002,0.092-0.002,0.139c-0.025,0.293-0.137,0.583-0.34,0.826  c-0.078,0.095-0.168,0.173-0.264,0.242l-8.473,7.065c-0.637,0.531-1.582,0.445-2.113-0.191c-0.529-0.637-0.443-1.582,0.191-2.113  l5.359-4.468H18.606c-0.828,0-1.5-0.672-1.5-1.5c0-0.829,0.672-1.5,1.5-1.5h22.647l-5.357-4.469  c-0.637-0.531-0.723-1.477-0.191-2.113C36.233,15.034,37.179,14.948,37.815,15.477z"/><path d="M26.185,31.978l-8.474,7.065c-0.095,0.07-0.185,0.148-0.263,0.242c-0.203,0.243-0.314,0.533-0.341,0.826  c-0.004,0.046,0,0.092-0.001,0.139c0.001,0.046-0.003,0.092,0.001,0.139c0.026,0.293,0.138,0.582,0.341,0.826  c0.078,0.094,0.168,0.172,0.263,0.242l8.474,7.064c0.637,0.531,1.582,0.445,2.112-0.191s0.444-1.582-0.191-2.112l-5.358-4.468  h22.647c0.828,0,1.5-0.672,1.5-1.5c0-0.829-0.672-1.5-1.5-1.5H22.747l5.357-4.469c0.637-0.531,0.723-1.476,0.191-2.112  C27.767,31.533,26.821,31.447,26.185,31.978z"/><text x="0" y="79" fill="#000000" font-size="5px" font-weight="bold" font-family="'Helvetica Neue', Helvetica, Arial-Unicode, Arial, Sans-serif">Created by Adnen Kadri</text><text x="0" y="84" fill="#000000" font-size="5px" font-weight="bold" font-family="'Helvetica Neue', Helvetica, Arial-Unicode, Arial, Sans-serif">from the Noun Project</text></svg>