<?xml version="1.0" encoding="iso-8859-1"?>
<!-- Generator: Adobe Illustrator 19.0.0, SVG Export Plug-In . SVG Version: 6.00 Build 0)  -->
<svg version="1.1" id="Layer_1" xmlns="http://www.w3.org/2000/svg" xmlns:xlink="http://www.w3.org/1999/xlink" x="0px" y="0px"
	 viewBox="0 0 512 512" style="enable-background:new 0 0 512 512;" xml:space="preserve">
<rect x="188.952" y="188.952" style="fill:#CA463D;" width="134.095" height="134.095"/>
<g>
	<polygon style="fill:#61ACD2;" points="499.81,256 405.943,182.857 410.819,231.619 323.048,231.619 323.048,280.381 
		410.819,280.381 405.943,329.143 	"/>
	<polygon style="fill:#61ACD2;" points="12.19,256 106.057,329.143 101.181,280.381 188.952,280.381 188.952,231.619 
		101.181,231.619 106.057,182.857 	"/>
</g>
<path d="M507.302,246.384l-93.867-73.143c-3.849-2.998-9.111-3.413-13.384-1.057c-4.27,2.356-6.725,7.033-6.239,11.886l3.535,35.358
	h-62.109v-30.476c0-6.732-5.459-12.19-12.19-12.19H188.952c-6.732,0-12.19,5.458-12.19,12.19v30.476h-62.11l3.535-35.358
	c0.485-4.853-1.969-9.529-6.239-11.886s-9.534-1.941-13.384,1.057L4.697,246.384C1.733,248.693,0,252.241,0,256
	c0,3.758,1.733,7.306,4.698,9.616l93.867,73.143c2.188,1.704,4.834,2.575,7.493,2.575c2.019,0,4.046-0.501,5.889-1.518
	c4.27-2.356,6.725-7.031,6.239-11.886l-3.535-35.358h62.11v30.476c0,6.732,5.459,12.19,12.19,12.19h134.095
	c6.732,0,12.19-5.459,12.19-12.19v-30.476h62.111l-3.535,35.358c-0.485,4.853,1.969,9.529,6.239,11.886
	c1.843,1.017,3.87,1.518,5.889,1.518c2.661,0,5.307-0.87,7.493-2.575l93.867-73.143c2.965-2.31,4.698-5.858,4.698-9.616
	S510.267,248.693,507.302,246.384z M101.181,268.19c-3.444,0-6.728,1.457-9.038,4.011c-2.311,2.554-3.434,5.965-3.092,9.393
	l2.043,20.436L32.024,256l59.07-46.03l-2.043,20.436c-0.343,3.428,0.78,6.84,3.092,9.393c2.31,2.553,5.594,4.011,9.038,4.011h75.581
	v24.381H101.181z M310.857,310.857H201.143V201.143h109.714V310.857z M420.905,302.029l2.043-20.436
	c0.343-3.428-0.78-6.839-3.092-9.393c-2.311-2.554-5.594-4.011-9.038-4.011h-75.581v-24.381h75.581c3.444,0,6.728-1.457,9.038-4.011
	c2.311-2.554,3.434-5.966,3.092-9.393l-2.043-20.436L479.976,256L420.905,302.029z"/>
<g>
</g>
<g>
</g>
<g>
</g>
<g>
</g>
<g>
</g>
<g>
</g>
<g>
</g>
<g>
</g>
<g>
</g>
<g>
</g>
<g>
</g>
<g>
</g>
<g>
</g>
<g>
</g>
<g>
</g>
</svg>
